<svg width="500" height="500" viewBox="0 0 500 500" fill="none" xmlns="http://www.w3.org/2000/svg">
<path d="M73.2206 462.419C170.855 512.519 329.145 512.535 426.779 462.419C524.414 412.304 524.4 331.082 426.779 280.982C329.159 230.882 170.855 230.882 73.2206 280.982C-24.414 331.082 -24.3998 412.319 73.2206 462.419Z" fill="#EAF1FB"/>
<path d="M426.439 425.393C444.421 425.393 458.998 417.914 458.998 408.688C458.998 399.462 444.421 391.983 426.439 391.983C408.458 391.983 393.88 399.462 393.88 408.688C393.88 417.914 408.458 425.393 426.439 425.393Z" fill="#6FA1EC"/>
<path d="M204.491 414.836L337.674 332.028C337.968 331.917 338.222 331.71 338.402 331.437C338.581 331.164 338.678 330.837 338.678 330.502C338.678 330.167 338.581 329.841 338.402 329.567C338.222 329.294 337.968 329.088 337.674 328.977L325.362 321.349C324.599 320.935 323.757 320.72 322.904 320.72C322.05 320.72 321.208 320.935 320.445 321.349L187.22 404.081C186.926 404.192 186.672 404.398 186.492 404.672C186.313 404.945 186.216 405.272 186.216 405.607C186.216 405.941 186.313 406.268 186.492 406.541C186.672 406.815 186.926 407.021 187.22 407.132L199.575 414.76C200.332 415.185 201.171 415.413 202.024 415.427C202.878 415.44 203.723 415.238 204.491 414.836Z" fill="#E0E0E0"/>
<path d="M334.019 12.3114L213.927 86.9734C212.142 88.2279 210.656 89.9175 209.59 91.9053C208.525 93.8932 207.909 96.1234 207.792 98.4153V405.164C207.792 409.375 210.541 411.083 213.927 408.978L334.019 334.316C335.806 333.064 337.294 331.375 338.36 329.387C339.426 327.399 340.041 325.167 340.154 322.874V16.1254C340.154 11.9148 337.419 10.2061 334.019 12.3114Z" fill="#455A64"/>
<path d="M213.927 86.9734L334.019 12.3114C337.051 10.4197 339.559 11.5944 340.069 14.8744C339.785 12.8122 339.1 10.8379 338.057 9.08149C337.014 7.32503 335.638 5.82617 334.019 4.68353L329.031 1.63237C327.13 0.593751 325.028 0.052475 322.897 0.052475C320.765 0.052475 318.663 0.593751 316.762 1.63237L196.656 76.2334C194.847 77.4547 193.355 79.1501 192.32 81.161L209.592 91.84C210.626 89.845 212.119 88.1694 213.927 86.9734Z" fill="#37474F"/>
<path d="M190.493 394.424C190.609 396.716 191.225 398.946 192.291 400.934C193.357 402.922 194.842 404.611 196.628 405.866L201.629 408.917C203.36 409.849 205.254 410.378 207.188 410.467C209.122 410.556 211.051 410.205 212.85 409.436C210.017 410.626 207.764 408.871 207.764 405.103V98.4153C207.835 96.1137 208.455 93.8704 209.563 91.9011L192.292 81.222C191.199 83.1764 190.58 85.3956 190.493 87.6752V394.424Z" fill="#263238"/>
<path d="M217.228 127.844L330.76 57.2856C332.8 56.0346 334.444 57.0568 334.444 59.574V286.611C334.376 287.987 334.006 289.326 333.366 290.519C332.726 291.712 331.833 292.726 330.76 293.476L217.271 364.034C215.231 365.301 213.587 364.279 213.587 361.746V134.709C213.652 133.337 214.015 132.001 214.647 130.809C215.28 129.616 216.164 128.6 217.228 127.844Z" fill="white"/>
<path d="M273.973 61.2674C273.346 61.7104 272.825 62.3056 272.451 63.0051C272.077 63.7046 271.86 64.4889 271.819 65.2949C271.819 66.8205 272.783 67.385 273.973 66.6374C274.602 66.1972 275.125 65.6026 275.5 64.9025C275.874 64.2024 276.089 63.4167 276.127 62.6099C276.127 61.1301 275.163 60.5351 273.973 61.2674Z" fill="#37474F"/>
<path d="M273.973 339.61C271.496 341.355 269.436 343.703 267.959 346.465C266.482 349.226 265.63 352.324 265.472 355.506C265.472 361.349 269.283 363.729 273.973 360.8C276.449 359.055 278.509 356.706 279.986 353.944C281.462 351.183 282.315 348.086 282.474 344.904C282.502 339.061 278.677 336.681 273.973 339.61Z" fill="#37474F"/>
<path d="M253.585 84.8834C252.339 85.7734 251.306 86.9662 250.568 88.3654C249.829 89.7646 249.407 91.3311 249.334 92.9385C249.334 95.8981 251.261 97.1033 253.585 95.6235C254.843 94.7419 255.89 93.5529 256.641 92.1532C257.392 90.7534 257.825 89.1826 257.906 87.5684C257.906 84.6088 255.979 83.4036 253.585 84.8834Z" fill="#37474F"/>
<path d="M264.168 83.8765C264.168 85.8598 265.585 86.6073 267.243 85.5547L295.58 67.9037C296.458 67.3134 297.194 66.5084 297.728 65.554C298.262 64.5997 298.579 63.523 298.654 62.4116C298.654 60.4436 297.238 59.696 295.58 60.7487L267.243 78.3997C266.367 78.9885 265.632 79.7911 265.098 80.7426C264.564 81.6941 264.245 82.7678 264.168 83.8765Z" fill="#37474F"/>
<path d="M200.07 137.669C201.076 138.374 201.913 139.324 202.514 140.443C203.114 141.561 203.462 142.816 203.528 144.106C203.528 146.486 201.983 147.448 200.07 146.258C199.068 145.55 198.235 144.598 197.637 143.48C197.039 142.362 196.693 141.108 196.628 139.82C196.628 137.455 198.172 136.494 200.07 137.669Z" fill="#37474F"/>
<path d="M200.07 166.319C201.076 167.024 201.913 167.975 202.514 169.093C203.114 170.212 203.462 171.467 203.528 172.757C203.528 175.122 201.983 176.083 200.07 174.908C199.068 174.2 198.235 173.249 197.637 172.131C197.039 171.012 196.693 169.758 196.628 168.47C196.628 166.09 198.172 165.129 200.07 166.319Z" fill="#37474F"/>
<path d="M198.994 138.248C199.999 138.953 200.836 139.904 201.437 141.022C202.037 142.141 202.385 143.396 202.451 144.686C202.451 147.051 200.906 148.012 198.994 146.837C197.988 146.132 197.151 145.182 196.551 144.063C195.95 142.945 195.603 141.689 195.537 140.399C195.551 138.019 197.095 137.104 198.994 138.248Z" fill="#455A64"/>
<path d="M198.994 166.883C200.001 167.59 200.839 168.543 201.44 169.664C202.041 170.786 202.387 172.044 202.451 173.337C202.451 175.701 200.906 176.662 198.994 175.472C197.986 174.77 197.147 173.82 196.546 172.701C195.945 171.582 195.599 170.325 195.537 169.034C195.551 166.67 197.095 165.709 198.994 166.883Z" fill="#455A64"/>
<path d="M357.425 66.7595C357.425 64.227 355.781 63.2049 353.741 64.4711L340.154 72.9076L240.252 135.029C239.179 135.78 238.286 136.793 237.646 137.986C237.006 139.179 236.636 140.518 236.568 141.894V368.871C236.568 371.403 238.212 372.425 240.252 371.159L340.196 309.022L353.741 300.601C354.814 299.85 355.707 298.837 356.347 297.644C356.988 296.451 357.357 295.112 357.425 293.736V66.7595Z" fill="white"/>
<path d="M358.842 66.7595C358.931 65.9944 358.809 65.218 358.49 64.5274C358.172 63.8368 357.671 63.2627 357.051 62.8768C356.431 62.4909 355.719 62.3104 355.005 62.3579C354.29 62.4054 353.604 62.6788 353.033 63.1438L340.069 71.2142L239.544 133.763C238.249 134.643 237.173 135.848 236.408 137.275C235.643 138.703 235.212 140.309 235.151 141.955V368.871C235.095 369.632 235.231 370.396 235.545 371.081C235.859 371.766 236.34 372.347 236.937 372.761C237.444 373.078 238.022 373.242 238.609 373.234C239.439 373.206 240.249 372.948 240.961 372.486L341.556 309.937L354.492 301.897C355.779 301.009 356.849 299.802 357.614 298.376C358.378 296.951 358.813 295.349 358.884 293.705L358.842 66.7595ZM340.097 307.329L338.935 308.061L239.6 369.816C239.433 369.954 239.24 370.051 239.034 370.098C238.828 370.146 238.615 370.143 238.41 370.091C238.226 369.969 238.042 369.542 238.042 368.84V141.894C238.115 140.787 238.421 139.711 238.936 138.749C239.452 137.788 240.163 136.964 241.017 136.341L340.253 74.5552L354.421 65.7221C354.588 65.584 354.782 65.4877 354.988 65.4402C355.193 65.3927 355.407 65.3951 355.611 65.4475C355.796 65.5695 355.98 65.9967 355.98 66.6985V293.736C355.906 294.843 355.6 295.919 355.085 296.881C354.57 297.842 353.858 298.666 353.004 299.289L340.069 307.329H340.097Z" fill="#2F73DA"/>
<path d="M296.997 119.499C309.748 111.596 320.02 117.973 320.02 133.824C320.02 149.675 309.706 168.912 296.997 176.754C284.288 184.595 273.973 178.28 273.973 162.444C273.973 146.608 284.288 127.417 296.997 119.499Z" fill="#2F73DA"/>
<path d="M296.997 131.948C301.12 129.385 304.463 131.459 304.463 136.524C304.323 139.315 303.574 142.03 302.277 144.45C300.98 146.87 299.171 148.927 296.997 150.453C292.874 153.016 289.53 150.941 289.53 145.876C289.67 143.086 290.419 140.371 291.716 137.951C293.014 135.53 294.823 133.474 296.997 131.948Z" fill="#2F73DA"/>
<path d="M311.548 159.286C311.548 150.865 306.064 147.448 299.278 151.658L295.027 154.297C288.255 158.508 282.757 168.76 282.757 177.181V179.454C286.682 180.843 291.613 180.095 296.926 176.754C302.812 172.845 307.789 167.538 311.477 161.239L311.548 159.286Z" fill="#2F73DA"/>
<path opacity="0.7" d="M296.997 131.948C301.12 129.385 304.463 131.459 304.463 136.524C304.323 139.315 303.574 142.03 302.277 144.45C300.98 146.87 299.171 148.927 296.997 150.453C292.874 153.016 289.53 150.941 289.53 145.876C289.67 143.086 290.419 140.371 291.716 137.951C293.014 135.53 294.823 133.474 296.997 131.948Z" fill="white"/>
<path opacity="0.7" d="M311.548 159.286C311.548 150.865 306.064 147.448 299.278 151.658L295.027 154.297C288.255 158.508 282.757 168.76 282.757 177.181V179.454C286.682 180.843 291.613 180.095 296.926 176.754C302.812 172.845 307.789 167.538 311.477 161.239L311.548 159.286Z" fill="white"/>
<path d="M252.451 211.614L282.077 193.2C283.494 192.361 284.528 193.032 284.528 194.725V195.778C284.484 196.695 284.238 197.587 283.812 198.383C283.386 199.178 282.792 199.854 282.077 200.355L252.451 218.768C251.105 219.608 250 218.921 250 217.243V216.19C250.046 215.274 250.292 214.382 250.718 213.587C251.144 212.791 251.737 212.115 252.451 211.614Z" fill="#2F73DA"/>
<path opacity="0.1" d="M252.451 211.614L282.077 193.2C283.494 192.361 284.528 193.032 284.528 194.725V195.778C284.484 196.695 284.238 197.587 283.812 198.383C283.386 199.178 282.792 199.854 282.077 200.355L252.451 218.768C251.105 219.608 250 218.921 250 217.243V216.19C250.046 215.274 250.292 214.382 250.718 213.587C251.144 212.791 251.737 212.115 252.451 211.614Z" fill="black"/>
<path d="M251.233 233.841L340.862 178.127C341.528 177.7 342.081 178.035 342.081 178.89V190.149C342.056 190.606 341.933 191.05 341.721 191.447C341.51 191.844 341.216 192.183 340.862 192.437L251.233 248.151C250.553 248.578 250 248.227 250 247.388V236.13C250.024 235.671 250.149 235.225 250.363 234.827C250.577 234.43 250.875 234.092 251.233 233.841Z" fill="#2F73DA"/>
<path opacity="0.2" d="M251.233 233.841L340.862 178.127C341.528 177.7 342.081 178.035 342.081 178.89V190.149C342.056 190.606 341.933 191.05 341.721 191.447C341.51 191.844 341.216 192.183 340.862 192.437L251.233 248.151C250.553 248.578 250 248.227 250 247.388V236.13C250.024 235.671 250.149 235.225 250.363 234.827C250.577 234.43 250.875 234.092 251.233 233.841Z" fill="white"/>
<path d="M252.451 261.698L282.077 243.285C283.494 242.446 284.528 243.132 284.528 244.81V245.863C284.485 246.78 284.24 247.673 283.814 248.468C283.388 249.264 282.793 249.939 282.077 250.44L252.451 268.853C251.105 269.708 250 269.021 250 267.328V266.275C250.048 265.359 250.295 264.468 250.721 263.673C251.146 262.878 251.739 262.202 252.451 261.698Z" fill="#2F73DA"/>
<path opacity="0.1" d="M252.451 261.698L282.077 243.285C283.494 242.446 284.528 243.132 284.528 244.81V245.863C284.485 246.78 284.24 247.673 283.814 248.468C283.388 249.264 282.793 249.939 282.077 250.44L252.451 268.853C251.105 269.708 250 269.021 250 267.328V266.275C250.048 265.359 250.295 264.468 250.721 263.673C251.146 262.878 251.739 262.202 252.451 261.698Z" fill="black"/>
<path d="M251.233 283.926L340.862 228.212C341.528 227.785 342.081 228.136 342.081 228.975V240.233C342.056 240.69 341.933 241.135 341.721 241.532C341.51 241.929 341.216 242.268 340.862 242.522L251.233 298.236C250.553 298.663 250 298.328 250 297.473V286.214C250.024 285.756 250.149 285.309 250.363 284.912C250.577 284.514 250.875 284.177 251.233 283.926Z" fill="#2F73DA"/>
<path opacity="0.2" d="M251.233 283.926L340.862 228.212C341.528 227.785 342.081 228.136 342.081 228.975V240.233C342.056 240.69 341.933 241.135 341.721 241.532C341.51 241.929 341.216 242.268 340.862 242.522L251.233 298.236C250.553 298.663 250 298.328 250 297.473V286.214C250.024 285.756 250.149 285.309 250.363 284.912C250.577 284.514 250.875 284.177 251.233 283.926Z" fill="white"/>
<path d="M286.98 290.318L322.401 268.335C323.817 267.48 324.866 268.167 324.866 269.86V281.638C324.819 282.556 324.572 283.449 324.143 284.245C323.715 285.04 323.118 285.715 322.401 286.214L286.98 308.213C285.563 309.052 284.528 308.366 284.528 306.688V294.895C284.578 293.979 284.825 293.089 285.251 292.294C285.676 291.499 286.268 290.823 286.98 290.318Z" fill="#2F73DA"/>
<path opacity="0.1" d="M286.98 290.318L322.401 268.335C323.817 267.48 324.866 268.167 324.866 269.86V281.638C324.819 282.556 324.572 283.449 324.143 284.245C323.715 285.04 323.118 285.715 322.401 286.214L286.98 308.213C285.563 309.052 284.528 308.366 284.528 306.688V294.895C284.578 293.979 284.825 293.089 285.251 292.294C285.676 291.499 286.268 290.823 286.98 290.318Z" fill="black"/>
<path d="M370.857 240.615C370.857 240.615 353.458 214.771 352.438 211.629C351.63 209.31 352.438 205.862 352.693 204.26C352.948 202.658 353.174 199.088 353.43 198.158C353.855 196.419 351.772 196.77 350.596 198.356C349.42 199.943 349.023 203.116 348.414 203.635C347.805 204.153 343.172 196.876 340.749 193.52C338.326 190.164 336.81 188.12 335.322 189.371C334.26 190.271 335.053 192.223 336.81 195.091C337.836 196.636 338.782 198.24 339.644 199.897C339.913 200.523 338.468 200.568 337.688 201.865C337.079 202.872 337.688 204.504 336.838 205.282C336.315 205.711 335.957 206.332 335.831 207.027C335.706 207.722 335.822 208.442 336.158 209.051C337.735 211.717 339.769 214.037 342.151 215.885C344.758 217.823 345.807 218.509 347.351 221.148C348.896 223.788 362.752 250.745 363.687 252.362C364.623 253.979 366.422 257.274 369.156 257.366C371.891 257.457 394.277 236.709 395.425 235.672C399.109 232.361 400.284 231.889 400.908 234.863C401.123 235.921 401.284 236.99 401.39 238.067C401.829 241.851 404.223 255.367 404.223 255.367C404.223 255.367 415.558 261.271 424.867 258.418C434.175 255.566 437.321 251.309 437.321 251.309L432.659 243.132C433.92 239.761 439.744 226.091 441.628 216.526L412.441 211.446C411.846 211.308 410.882 211.049 409.607 210.698C408.006 210.241 403.94 208.73 400.865 211.629C390.834 221.042 370.885 240.615 370.885 240.615" fill="#FFA8A7"/>
<path d="M428.721 399.184L423.492 407.01C425.868 408.205 428.465 408.804 431.087 408.765C435.776 408.948 437.066 407.239 437.236 406.903C438.029 405.073 436.797 401.777 436.456 398.94L428.721 399.184Z" fill="#37474F"/>
<path d="M423.79 403.257C423.79 403.257 417.442 402.815 413.064 402.235C408.686 401.655 405.215 403.944 406.235 405.881C407.255 407.819 409.678 409.436 413.447 410.794C416.663 411.968 420.531 412.807 423.875 413.845C427.219 414.882 429.542 416.24 431.483 415.508C433.651 414.699 434.586 413.768 434.402 412.06C433.929 409.629 433.343 407.226 432.645 404.859L423.79 403.257Z" fill="#37474F"/>
<path d="M437.236 391.327C437.236 391.327 436.442 398.436 436.386 399.962C436.329 401.487 429.939 401.976 428.72 399.184L428.522 390.488L437.236 391.327Z" fill="#F28F8F"/>
<path d="M430.803 395.69L433.084 406.491C433.084 406.491 433.297 407.803 428.083 408.642C422.869 409.481 414.68 405.698 413.277 404.935C411.874 404.172 411.718 402.632 416.847 402.937C421.976 403.242 423.79 403.257 423.79 403.257L422.118 398.482L430.803 395.69Z" fill="#FFA8A7"/>
<path d="M441.543 216.434L445.156 215.351C445.156 215.351 452.708 241.088 453.544 243.574C454.379 246.061 455.329 248.685 453.699 251.752C451.758 255.398 441.543 270.059 441.543 270.059L435.054 263.224L442.421 248.7L435.904 234.512L441.543 216.434Z" fill="#F28F8F"/>
<path d="M404.436 183.009C403.589 181.297 403.159 179.381 403.186 177.442C403.213 175.502 403.697 173.602 404.592 171.918C408.19 164.732 416.21 161.239 425.759 162.566C430.18 163.192 435.394 167.143 438.242 173.047C441.387 179.592 441.685 192.773 442.492 197.761L404.436 183.009Z" fill="#37474F"/>
<path d="M404.181 185.831C404.181 185.831 401.914 190.484 402.311 190.911C402.898 191.281 403.54 191.539 404.209 191.674L404.181 185.831Z" fill="#FFA8A7"/>
<path d="M411.067 171.125C408.601 172.848 404.351 176.022 404.167 186.472C403.968 197.151 405.385 200.675 406.859 201.911C407.85 202.75 413.674 202.323 416.167 201.697C418.661 201.072 425.844 197.243 428.437 191.43C431.483 184.595 430.86 174.649 426.34 171.597C424.04 170.133 421.432 169.321 418.76 169.238C416.089 169.156 413.441 169.805 411.067 171.125Z" fill="#FFA8A7"/>
<path d="M437.236 251.248C441.6 258.571 445.737 264.978 446.644 273.247C448.514 290.623 442.393 310.486 441.075 323.347C443.553 327.005 444.982 331.365 445.184 335.887C445.184 341.212 437.236 391.327 437.236 391.327C437.236 391.327 431.455 393.219 428.522 390.488L423.067 298.297L425.901 287.069L437.236 251.248Z" fill="#2F73DA"/>
<path opacity="0.2" d="M437.236 251.248C441.6 258.571 445.737 264.978 446.644 273.247C448.514 290.623 442.393 310.486 441.075 323.347C443.553 327.005 444.982 331.365 445.184 335.887C445.184 341.212 437.236 391.327 437.236 391.327C437.236 391.327 431.455 393.219 428.522 390.488L423.067 298.297L425.901 287.069L437.236 251.248Z" fill="black"/>
<path d="M423.067 298.297L425.901 287.069C431.327 285.531 436.56 283.292 441.486 280.402C441.486 280.402 438.539 286.184 430.066 289.357L425.688 303.774L425.32 336.803L423.067 298.297Z" fill="#2F73DA"/>
<path opacity="0.3" d="M423.067 298.297L425.901 287.069C431.327 285.531 436.56 283.292 441.486 280.402C441.486 280.402 438.539 286.184 430.066 289.357L425.688 303.774L425.32 336.803L423.067 298.297Z" fill="black"/>
<path d="M437.236 251.248C439.573 255.367 445.156 262.385 443.966 269.143C442.549 277.32 438.44 283.072 425.943 287.069L414.212 332.836C414.212 332.836 420.319 338.939 422.189 344.843C424.059 350.747 430.803 395.721 430.803 395.721C430.803 395.721 428.706 399.397 422.118 398.513C422.118 398.513 399.151 342.066 397.536 338.389C395.575 334.666 394.889 330.321 395.595 326.108C396.317 320.189 404.096 255.398 404.096 255.398L437.236 251.248Z" fill="#2F73DA"/>
<path opacity="0.2" d="M437.236 251.248C439.573 255.367 445.156 262.385 443.966 269.143C442.549 277.32 438.44 283.072 425.943 287.069L414.212 332.836C414.212 332.836 420.319 338.939 422.189 344.843C424.059 350.747 430.803 395.721 430.803 395.721C430.803 395.721 428.706 399.397 422.118 398.513C422.118 398.513 399.151 342.066 397.536 338.389C395.575 334.666 394.889 330.321 395.595 326.108C396.317 320.189 404.096 255.398 404.096 255.398L437.236 251.248Z" fill="black"/>
<path d="M441.543 216.434L412.356 211.354C411.761 211.217 410.797 210.958 409.522 210.607C409.522 210.607 408.275 230.317 400.78 234.833C400.965 235.779 401.12 236.831 401.262 238.037C401.701 241.82 404.096 255.337 404.096 255.337C404.096 255.337 415.431 261.241 424.739 258.388C434.048 255.535 437.193 251.279 437.193 251.279L432.532 243.102C433.835 239.699 439.701 226.03 441.543 216.434Z" fill="#2F73DA"/>
<path opacity="0.7" d="M441.543 216.434L412.356 211.354C411.761 211.217 410.797 210.958 409.522 210.607C409.522 210.607 408.275 230.317 400.78 234.833C400.965 235.779 401.12 236.831 401.262 238.037C401.701 241.82 404.096 255.337 404.096 255.337C404.096 255.337 415.431 261.241 424.739 258.388C434.048 255.535 437.193 251.279 437.193 251.279L432.532 243.102C433.835 239.699 439.701 226.03 441.543 216.434Z" fill="white"/>
<path d="M433.849 239.852C429.973 242.358 425.912 244.517 421.707 246.305C425.524 246.223 429.26 245.111 432.574 243.071L433.849 239.852Z" fill="#2F73DA"/>
<path d="M410.344 171.643C410.344 171.643 408.927 181.56 412.271 187.387C412.271 187.387 413.518 183.436 416.621 184.184C419.724 184.931 419.894 189.34 417.712 191.811C417.157 192.505 416.432 193.016 415.62 193.285C414.808 193.555 413.942 193.573 413.121 193.337C413.121 193.337 412.625 200.507 412.356 206.518C412.087 212.529 410.613 225.634 416.89 230.927C423.166 236.221 438.922 238.082 446.303 226.976C450.412 220.798 444.957 209.874 442.421 197.624C440.084 186.365 438.766 169.675 427.672 166.99C416.578 164.305 410.344 171.643 410.344 171.643Z" fill="#37474F"/>
</svg>
