<svg width="259" height="232" viewBox="0 0 259 232" fill="none" xmlns="http://www.w3.org/2000/svg">
<g clip-path="url(#clip0_390_1282)">
<path d="M256.728 88.7215C256.635 88.7215 256.545 88.6932 256.468 88.6402L130.804 1.31131C130.422 1.04679 129.967 0.905423 129.502 0.906214C129.037 0.907006 128.583 1.04992 128.201 1.31574L3.44177 88.6394C3.34309 88.7084 3.22096 88.7355 3.10224 88.7148C2.98352 88.694 2.87794 88.627 2.80872 88.5285C2.73951 88.43 2.71233 88.3082 2.73316 88.1897C2.754 88.0712 2.82114 87.9659 2.91982 87.8968L127.679 0.573184C128.213 0.201091 128.849 0.0010726 129.5 4.30179e-06C130.152 -0.001064 130.788 0.196867 131.323 0.567206L256.988 87.8959C257.067 87.9511 257.127 88.0302 257.158 88.1215C257.189 88.2129 257.191 88.3119 257.162 88.404C257.133 88.4961 257.075 88.5765 256.997 88.6336C256.919 88.6908 256.825 88.7215 256.728 88.7215L256.728 88.7215Z" fill="#3F3D56"/>
<path d="M10.5708 91.8171L129.625 3.77197L249.583 98.0819L135.76 165.414L73.9631 151.358L10.5708 91.8171Z" fill="#E6E6E6"/>
<path d="M79.1793 207.002H20.3634C20.0023 207.002 19.6446 206.932 19.3108 206.794C18.977 206.656 18.6737 206.455 18.4181 206.2C18.1626 205.945 17.9599 205.643 17.8216 205.31C17.6833 204.977 17.6121 204.62 17.6121 204.26C17.6121 203.899 17.6833 203.543 17.8216 203.21C17.9599 202.877 18.1626 202.574 18.4181 202.32C18.6737 202.065 18.977 201.863 19.3108 201.726C19.6446 201.588 20.0023 201.517 20.3634 201.518H79.1793C79.5404 201.517 79.8981 201.588 80.2319 201.726C80.5657 201.863 80.8691 202.065 81.1246 202.32C81.3801 202.574 81.5829 202.877 81.7212 203.21C81.8595 203.543 81.9307 203.899 81.9307 204.26C81.9307 204.62 81.8595 204.977 81.7212 205.31C81.5829 205.643 81.3801 205.945 81.1246 206.2C80.8691 206.455 80.5657 206.656 80.2319 206.794C79.8981 206.932 79.5404 207.002 79.1793 207.002Z" fill="#2F73DA"/>
<path d="M41.4653 195.213H20.3634C20.0023 195.213 19.6446 195.143 19.3108 195.005C18.977 194.868 18.6737 194.666 18.4181 194.411C18.1626 194.156 17.9599 193.854 17.8216 193.521C17.6833 193.188 17.6121 192.831 17.6121 192.471C17.6121 192.111 17.6833 191.754 17.8216 191.421C17.9599 191.088 18.1626 190.786 18.4181 190.531C18.6737 190.276 18.977 190.074 19.3108 189.937C19.6446 189.799 20.0023 189.729 20.3634 189.729H41.4653C41.8264 189.729 42.1841 189.799 42.5179 189.937C42.8517 190.074 43.155 190.276 43.4106 190.531C43.6661 190.786 43.8688 191.088 44.0071 191.421C44.1454 191.754 44.2166 192.111 44.2166 192.471C44.2166 192.831 44.1454 193.188 44.0071 193.521C43.8688 193.854 43.6661 194.156 43.4106 194.411C43.155 194.666 42.8517 194.868 42.5179 195.005C42.1841 195.143 41.8264 195.213 41.4653 195.213Z" fill="#2F73DA"/>
<path d="M131.299 140.857C130.852 140.858 130.41 140.771 129.996 140.602L56.5712 110.201V15.0418C56.5721 14.2003 56.9076 13.3936 57.5038 12.7986C58.1001 12.2036 58.9086 11.8689 59.7519 11.8679H200.612C201.455 11.8689 202.263 12.2036 202.86 12.7986C203.456 13.3936 203.791 14.2003 203.792 15.0418V110.268L203.654 110.327L132.643 140.587C132.217 140.766 131.761 140.857 131.299 140.857Z" fill="white"/>
<path d="M131.299 141.083C130.823 141.084 130.351 140.992 129.909 140.812L56.344 110.353V15.0417C56.345 14.1401 56.7044 13.2758 57.3433 12.6383C57.9822 12.0007 58.8484 11.6421 59.7519 11.6411H200.612C201.515 11.6421 202.381 12.0007 203.02 12.6383C203.659 13.2758 204.018 14.1401 204.019 15.0417V110.417L132.732 140.796C132.278 140.986 131.791 141.084 131.299 141.083ZM57.2527 109.747L130.256 139.974C130.937 140.249 131.699 140.245 132.377 139.961L203.111 109.819V15.0417C203.11 14.3806 202.846 13.7467 202.378 13.2792C201.909 12.8117 201.274 12.5487 200.612 12.5479H59.7519C59.0893 12.5487 58.4541 12.8117 57.9856 13.2792C57.5171 13.7467 57.2536 14.3806 57.2528 15.0417L57.2527 109.747Z" fill="#3F3D56"/>
<path d="M255.819 87.8147H255.728L203.565 110.041L132.195 140.451C131.916 140.568 131.616 140.63 131.314 140.631C131.011 140.633 130.711 140.575 130.431 140.46L56.7982 109.978L3.35332 87.851L3.27167 87.8147H3.1807C2.33741 87.8156 1.52893 88.1503 0.932637 88.7453C0.336342 89.3404 0.000935695 90.1471 0 90.9886V228.826C0.000936895 229.668 0.336342 230.474 0.932637 231.069C1.52893 231.664 2.33741 231.999 3.1807 232H255.819C256.663 231.999 257.471 231.664 258.067 231.069C258.664 230.474 258.999 229.668 259 228.826V90.9886C258.999 90.1471 258.664 89.3404 258.067 88.7453C257.471 88.1503 256.663 87.8156 255.819 87.8147ZM258.091 228.826C258.091 229.427 257.852 230.004 257.426 230.429C257 230.854 256.422 231.093 255.819 231.093H3.1807C2.57822 231.093 2.00049 230.854 1.57447 230.429C1.14846 230.004 0.909013 229.427 0.908772 228.826V90.9886C0.909596 90.4023 1.13749 89.8391 1.54481 89.4166C1.95213 88.9941 2.50735 88.745 3.0944 88.7215L56.7982 110.957L130.082 141.299C130.875 141.621 131.764 141.616 132.554 141.286L203.565 111.025L255.91 88.7215C256.496 88.7468 257.05 88.9965 257.456 89.4188C257.862 89.841 258.09 90.4033 258.091 90.9886V228.826Z" fill="#3F3D56"/>
<path d="M130.565 113.873C127.855 113.878 125.216 113.004 123.047 111.381L122.913 111.281L94.5996 89.6494C93.2883 88.6469 92.1878 87.3964 91.3608 85.9695C90.5339 84.5426 89.9967 82.9671 89.7799 81.333C89.5631 79.6989 89.6711 78.0382 90.0975 76.4457C90.5239 74.8532 91.2604 73.3601 92.2651 72.0517C93.2698 70.7432 94.5229 69.6451 95.9529 68.8199C97.3829 67.9947 98.9618 67.4587 100.599 67.2424C102.237 67.026 103.901 67.1337 105.497 67.5592C107.093 67.9847 108.589 68.7197 109.901 69.7222L128.24 83.7543L171.578 27.3558C172.583 26.0477 173.837 24.95 175.267 24.1253C176.697 23.3006 178.276 22.7651 179.914 22.5494C181.552 22.3336 183.216 22.4419 184.812 22.868C186.407 23.2941 187.903 24.0297 189.214 25.0327L188.945 25.3978L189.221 25.038C191.866 27.066 193.596 30.0577 194.032 33.3569C194.469 36.6562 193.576 39.9934 191.549 42.6366L140.573 108.975C139.394 110.503 137.878 111.741 136.142 112.59C134.407 113.44 132.499 113.879 130.565 113.873Z" fill="#2F73DA"/>
</g>
<defs>
<clipPath id="clip0_390_1282">
<rect width="259" height="232" fill="white"/>
</clipPath>
</defs>
</svg>
