<svg width="127" height="26" viewBox="0 0 127 26" fill="none" xmlns="http://www.w3.org/2000/svg">
<g clip-path="url(#clip0_453_60)">
<path d="M15 11.805C15 11.3032 14.622 10.8975 14.1566 10.8975C14.144 10.8975 14.1315 10.8986 14.1193 10.8993L14.1128 10.8742H9.70801L8.45123 6.79367L8.44003 6.79297C8.42779 6.24604 8.01239 5.80444 7.49983 5.80444C6.99714 5.80444 6.58817 6.22844 6.56135 6.76285H6.55796L5.29136 10.8742H1.05499C1.00777 10.8663 0.959882 10.861 0.909947 10.861C0.407587 10.861 0 11.299 0 11.8402C0 12.2667 0.254397 12.6283 0.607996 12.7627L3.92686 15.3068L2.59027 19.6486L2.61543 19.6683C2.58179 19.768 2.56278 19.8755 2.56278 19.9884C2.56278 20.5092 2.95545 20.9314 3.44013 20.9314C3.65174 20.9314 3.84605 20.85 3.99786 20.7149L4.00772 20.7235L7.4995 18.0461L11.0453 20.7647L11.0622 20.7525C11.211 20.8852 11.4022 20.9654 11.6101 20.9654C12.0853 20.9654 12.4701 20.5511 12.4701 20.0407C12.4701 19.9471 12.4572 19.8575 12.4331 19.7726L12.4454 19.7647L11.0731 15.3068L14.5798 12.6179L14.5727 12.5935C14.8278 12.4366 15 12.1419 15 11.805Z" fill="#52D858"/>
</g>
<path d="M42.64 11.7948C43.8133 11.8588 44.704 12.1788 45.312 12.7548C45.9307 13.3202 46.24 14.0615 46.24 14.9788C46.24 15.6188 46.0853 16.1895 45.776 16.6908C45.4667 17.1815 45.008 17.5708 44.4 17.8588C43.792 18.1468 43.0507 18.2908 42.176 18.2908C41.3653 18.2908 40.5973 18.1628 39.872 17.9068C39.1573 17.6402 38.5813 17.2882 38.144 16.8508L38.704 15.9388C39.0773 16.3228 39.5733 16.6375 40.192 16.8828C40.8107 17.1175 41.472 17.2348 42.176 17.2348C43.0933 17.2348 43.8027 17.0375 44.304 16.6428C44.8053 16.2375 45.056 15.6828 45.056 14.9788C45.056 14.2855 44.8053 13.7415 44.304 13.3468C43.8027 12.9522 43.0453 12.7548 42.032 12.7548H41.232V11.9068L44.336 8.01882H38.608V6.99482H45.808V7.81082L42.64 11.7948ZM60.0668 15.2028H53.8268L52.4828 18.1948H51.2508L56.3708 6.99482H57.5388L62.6588 18.1948H61.4108L60.0668 15.2028ZM59.6348 14.2428L56.9468 8.22682L54.2588 14.2428H59.6348ZM67.6814 18.2748C66.8494 18.2748 66.1027 18.0935 65.4414 17.7308C64.7907 17.3682 64.2787 16.8615 63.9054 16.2108C63.532 15.5495 63.3454 14.8082 63.3454 13.9868C63.3454 13.1655 63.532 12.4295 63.9054 11.7788C64.2787 11.1282 64.7907 10.6215 65.4414 10.2588C66.1027 9.89616 66.8494 9.71482 67.6814 9.71482C68.4067 9.71482 69.052 9.85882 69.6174 10.1468C70.1934 10.4242 70.6467 10.8348 70.9774 11.3788L70.1294 11.9548C69.852 11.5388 69.5 11.2295 69.0734 11.0268C68.6467 10.8135 68.1827 10.7068 67.6814 10.7068C67.0734 10.7068 66.524 10.8455 66.0334 11.1228C65.5534 11.3895 65.1747 11.7735 64.8974 12.2748C64.6307 12.7762 64.4974 13.3468 64.4974 13.9868C64.4974 14.6375 64.6307 15.2135 64.8974 15.7148C65.1747 16.2055 65.5534 16.5895 66.0334 16.8668C66.524 17.1335 67.0734 17.2668 67.6814 17.2668C68.1827 17.2668 68.6467 17.1655 69.0734 16.9628C69.5 16.7602 69.852 16.4508 70.1294 16.0348L70.9774 16.6108C70.6467 17.1548 70.1934 17.5708 69.6174 17.8588C69.0414 18.1362 68.396 18.2748 67.6814 18.2748ZM76.5564 18.2748C75.7244 18.2748 74.9777 18.0935 74.3164 17.7308C73.6657 17.3682 73.1537 16.8615 72.7804 16.2108C72.407 15.5495 72.2204 14.8082 72.2204 13.9868C72.2204 13.1655 72.407 12.4295 72.7804 11.7788C73.1537 11.1282 73.6657 10.6215 74.3164 10.2588C74.9777 9.89616 75.7244 9.71482 76.5564 9.71482C77.2817 9.71482 77.927 9.85882 78.4924 10.1468C79.0684 10.4242 79.5217 10.8348 79.8524 11.3788L79.0044 11.9548C78.727 11.5388 78.375 11.2295 77.9484 11.0268C77.5217 10.8135 77.0577 10.7068 76.5564 10.7068C75.9484 10.7068 75.399 10.8455 74.9084 11.1228C74.4284 11.3895 74.0497 11.7735 73.7724 12.2748C73.5057 12.7762 73.3724 13.3468 73.3724 13.9868C73.3724 14.6375 73.5057 15.2135 73.7724 15.7148C74.0497 16.2055 74.4284 16.5895 74.9084 16.8668C75.399 17.1335 75.9484 17.2668 76.5564 17.2668C77.0577 17.2668 77.5217 17.1655 77.9484 16.9628C78.375 16.7602 78.727 16.4508 79.0044 16.0348L79.8524 16.6108C79.5217 17.1548 79.0684 17.5708 78.4924 17.8588C77.9164 18.1362 77.271 18.2748 76.5564 18.2748ZM85.3834 18.2748C84.5727 18.2748 83.842 18.0935 83.1914 17.7308C82.5407 17.3575 82.0287 16.8455 81.6554 16.1948C81.282 15.5442 81.0954 14.8082 81.0954 13.9868C81.0954 13.1655 81.282 12.4295 81.6554 11.7788C82.0287 11.1282 82.5407 10.6215 83.1914 10.2588C83.842 9.89616 84.5727 9.71482 85.3834 9.71482C86.194 9.71482 86.9247 9.89616 87.5754 10.2588C88.226 10.6215 88.7327 11.1282 89.0954 11.7788C89.4687 12.4295 89.6554 13.1655 89.6554 13.9868C89.6554 14.8082 89.4687 15.5442 89.0954 16.1948C88.7327 16.8455 88.226 17.3575 87.5754 17.7308C86.9247 18.0935 86.194 18.2748 85.3834 18.2748ZM85.3834 17.2668C85.9807 17.2668 86.514 17.1335 86.9834 16.8668C87.4634 16.5895 87.8367 16.2002 88.1034 15.6988C88.37 15.1975 88.5034 14.6268 88.5034 13.9868C88.5034 13.3468 88.37 12.7762 88.1034 12.2748C87.8367 11.7735 87.4634 11.3895 86.9834 11.1228C86.514 10.8455 85.9807 10.7068 85.3834 10.7068C84.786 10.7068 84.2474 10.8455 83.7674 11.1228C83.298 11.3895 82.9247 11.7735 82.6474 12.2748C82.3807 12.7762 82.2474 13.3468 82.2474 13.9868C82.2474 14.6268 82.3807 15.1975 82.6474 15.6988C82.9247 16.2002 83.298 16.5895 83.7674 16.8668C84.2474 17.1335 84.786 17.2668 85.3834 17.2668ZM99.5586 9.77882V18.1948H98.4706V16.6588C98.172 17.1708 97.7613 17.5708 97.2386 17.8588C96.716 18.1362 96.1186 18.2748 95.4466 18.2748C94.348 18.2748 93.4786 17.9708 92.8386 17.3628C92.2093 16.7442 91.8946 15.8428 91.8946 14.6588V9.77882H93.0306V14.5468C93.0306 15.4322 93.2493 16.1042 93.6866 16.5628C94.124 17.0215 94.748 17.2508 95.5586 17.2508C96.444 17.2508 97.1426 16.9842 97.6546 16.4508C98.1666 15.9068 98.4226 15.1548 98.4226 14.1948V9.77882H99.5586ZM107.028 9.71482C108.084 9.71482 108.922 10.0242 109.54 10.6428C110.17 11.2508 110.484 12.1415 110.484 13.3148V18.1948H109.348V13.4268C109.348 12.5522 109.13 11.8855 108.692 11.4268C108.255 10.9682 107.631 10.7388 106.82 10.7388C105.914 10.7388 105.194 11.0108 104.66 11.5548C104.138 12.0882 103.876 12.8295 103.876 13.7788V18.1948H102.74V9.77882H103.828V11.3308C104.138 10.8188 104.564 10.4242 105.108 10.1468C105.663 9.85882 106.303 9.71482 107.028 9.71482ZM118 17.6828C117.787 17.8748 117.52 18.0242 117.2 18.1308C116.891 18.2268 116.566 18.2748 116.224 18.2748C115.435 18.2748 114.827 18.0615 114.4 17.6348C113.974 17.2082 113.76 16.6055 113.76 15.8268V10.7388H112.256V9.77882H113.76V7.93882H114.896V9.77882H117.456V10.7388H114.896V15.7628C114.896 16.2642 115.019 16.6482 115.264 16.9148C115.52 17.1708 115.883 17.2988 116.352 17.2988C116.587 17.2988 116.811 17.2615 117.024 17.1868C117.248 17.1122 117.44 17.0055 117.6 16.8668L118 17.6828ZM122.324 18.2748C121.642 18.2748 120.986 18.1788 120.356 17.9868C119.738 17.7842 119.252 17.5335 118.9 17.2348L119.412 16.3388C119.764 16.6162 120.207 16.8455 120.74 17.0268C121.274 17.1975 121.828 17.2828 122.404 17.2828C123.172 17.2828 123.738 17.1655 124.1 16.9308C124.474 16.6855 124.66 16.3442 124.66 15.9068C124.66 15.5975 124.559 15.3575 124.356 15.1868C124.154 15.0055 123.898 14.8722 123.588 14.7868C123.279 14.6908 122.868 14.6002 122.356 14.5148C121.674 14.3868 121.124 14.2588 120.708 14.1308C120.292 13.9922 119.935 13.7628 119.636 13.4428C119.348 13.1228 119.204 12.6802 119.204 12.1148C119.204 11.4108 119.498 10.8348 120.084 10.3868C120.671 9.93882 121.487 9.71482 122.532 9.71482C123.076 9.71482 123.62 9.78949 124.164 9.93882C124.708 10.0775 125.156 10.2642 125.508 10.4988L125.012 11.4108C124.319 10.9308 123.492 10.6908 122.532 10.6908C121.807 10.6908 121.258 10.8188 120.884 11.0748C120.522 11.3308 120.34 11.6668 120.34 12.0828C120.34 12.4028 120.442 12.6588 120.644 12.8508C120.858 13.0428 121.119 13.1868 121.428 13.2828C121.738 13.3682 122.164 13.4588 122.708 13.5548C123.38 13.6828 123.919 13.8108 124.324 13.9388C124.73 14.0668 125.076 14.2855 125.364 14.5948C125.652 14.9042 125.796 15.3308 125.796 15.8748C125.796 16.6108 125.487 17.1975 124.868 17.6348C124.26 18.0615 123.412 18.2748 122.324 18.2748Z" fill="#1F2329"/>
<defs>
<clipPath id="clip0_453_60">
<rect width="15" height="15.8279" fill="white" transform="translate(0 5.47095)"/>
</clipPath>
</defs>
</svg>
