<svg width="50" height="50" viewBox="0 0 50 50" fill="none" xmlns="http://www.w3.org/2000/svg">
<g clip-path="url(#clip0_448_24)">
<path d="M33.9932 26.9548C35.2247 27.3093 36.4562 27.4892 37.6541 27.4892C39.504 27.4892 41.0475 27.0665 42.2444 26.5488C41.0905 30.773 38.3186 38.0618 32.7969 38.8826C32.2855 38.9586 31.8664 39.3284 31.7269 39.8261L30.5201 44.1426C30.4183 44.5077 30.4787 44.8984 30.6869 45.2152C30.8951 45.532 31.2297 45.7433 31.6047 45.7947C32.0122 45.8503 32.4276 45.8787 32.8394 45.8787C39.4672 45.8787 46.0312 38.9607 48.8009 29.0554C50.4268 23.2441 50.9036 14.5072 46.8986 9.00804C44.6575 5.9309 41.3879 4.28769 37.1805 4.12353C37.1632 4.123 37.1464 4.12248 37.1291 4.12248C31.9378 4.12248 27.3344 7.61868 25.934 12.6238C25.0975 15.616 25.4756 18.754 26.9998 21.4619C28.5077 24.1394 30.9911 26.091 33.9932 26.9548Z" fill="#F9F9F9"/>
<path d="M1.49683 21.4614C3.00471 24.1394 5.48814 26.091 8.49028 26.9548C9.72176 27.3093 10.9533 27.4892 12.1506 27.4892C14.0005 27.4892 15.5446 27.0665 16.7414 26.5488C15.5876 30.773 12.8157 38.0618 7.29341 38.8826C6.78204 38.9586 6.3635 39.3284 6.22347 39.8261L5.01663 44.1426C4.91488 44.5077 4.9752 44.8984 5.18341 45.2152C5.39111 45.532 5.72573 45.7433 6.10126 45.7947C6.50826 45.8503 6.92365 45.8787 7.33589 45.8787C13.9638 45.8787 20.5277 38.9607 23.298 29.0554C24.9234 23.2441 25.4001 14.5073 21.3947 9.007C19.1541 5.93039 15.8839 4.28666 11.677 4.12302C11.6597 4.12249 11.6429 4.12197 11.6251 4.12197C6.43431 4.12197 1.8304 7.61817 0.430034 12.6233C-0.405469 15.6155 -0.026794 18.754 1.49683 21.4614Z" fill="#F9F9F9"/>
</g>
<defs>
<clipPath id="clip0_448_24">
<rect width="50.0005" height="50" fill="white" transform="translate(49.9961 50) rotate(-180)"/>
</clipPath>
</defs>
</svg>
