<svg width="40" height="39" viewBox="0 0 40 39" fill="none" xmlns="http://www.w3.org/2000/svg">
<g clip-path="url(#clip0_1805_849)">
<path d="M1.43164 13.1923V37.7681H38.7439V13.1923" stroke="white" stroke-width="3" stroke-miterlimit="10" stroke-linecap="round"/>
<path d="M38.2945 21.6275H27.0863C25.8397 21.6275 24.644 22.1219 23.7625 23.002C22.881 23.8821 22.3857 25.0757 22.3857 26.3203V26.3203C22.3857 26.9366 22.5073 27.5468 22.7436 28.1162C22.9798 28.6856 23.326 29.2029 23.7625 29.6387C24.199 30.0744 24.7172 30.4201 25.2875 30.6559C25.8578 30.8918 26.469 31.0132 27.0863 31.0132H38.2945" stroke="white" stroke-width="3" stroke-miterlimit="10" stroke-linecap="round"/>
<path d="M28.144 27.9387C29.0393 27.9387 29.7651 27.2141 29.7651 26.3203C29.7651 25.4265 29.0393 24.7019 28.144 24.7019C27.2487 24.7019 26.5229 25.4265 26.5229 26.3203C26.5229 27.2141 27.2487 27.9387 28.144 27.9387Z" fill="white"/>
<path d="M13.6094 7.72409L20.1591 12.1239L26.517 7.72409" stroke="white" stroke-width="3" stroke-miterlimit="10" stroke-linecap="round"/>
<path d="M1.43164 1.35333H38.5311" stroke="white" stroke-width="3" stroke-miterlimit="10" stroke-linecap="round"/>
</g>
<defs>
<clipPath id="clip0_1805_849">
<rect width="40" height="39" fill="white"/>
</clipPath>
</defs>
</svg>
