<svg width="16" height="16" viewBox="0 0 16 16" fill="none" xmlns="http://www.w3.org/2000/svg">
<g clip-path="url(#clip0_1986_382)">
<path d="M1.33325 2.662C1.33447 2.48692 1.40452 2.31934 1.52826 2.19548C1.652 2.07161 1.81951 2.0014 1.99459 2H14.0053C14.3706 2 14.6666 2.29667 14.6666 2.662V13.338C14.6654 13.5131 14.5953 13.6807 14.4716 13.8045C14.3478 13.9284 14.1803 13.9986 14.0053 14H1.99459C1.81913 13.9998 1.65092 13.93 1.52691 13.8059C1.40291 13.6817 1.33325 13.5135 1.33325 13.338V2.662ZM2.66659 3.33333V12.6667H13.3333V3.33333H2.66659ZM7.99992 10C8.53035 10 9.03906 9.78929 9.41413 9.41421C9.78921 9.03914 9.99992 8.53043 9.99992 8C9.99992 7.46957 9.78921 6.96086 9.41413 6.58579C9.03906 6.21071 8.53035 6 7.99992 6C7.46949 6 6.96078 6.21071 6.5857 6.58579C6.21063 6.96086 5.99992 7.46957 5.99992 8C5.99992 8.53043 6.21063 9.03914 6.5857 9.41421C6.96078 9.78929 7.46949 10 7.99992 10ZM7.99992 11.3333C7.11586 11.3333 6.26802 10.9821 5.6429 10.357C5.01777 9.7319 4.66659 8.88406 4.66659 8C4.66659 7.11595 5.01777 6.2681 5.6429 5.64298C6.26802 5.01786 7.11586 4.66667 7.99992 4.66667C8.88397 4.66667 9.73182 5.01786 10.3569 5.64298C10.9821 6.2681 11.3333 7.11595 11.3333 8C11.3333 8.88406 10.9821 9.7319 10.3569 10.357C9.73182 10.9821 8.88397 11.3333 7.99992 11.3333ZM11.3333 4H12.6666V5.33333H11.3333V4Z" fill="white"/>
</g>
<defs>
<clipPath id="clip0_1986_382">
<rect width="16" height="16" fill="white"/>
</clipPath>
</defs>
</svg>
