<svg width="43" height="43" viewBox="0 0 43 43" fill="none" xmlns="http://www.w3.org/2000/svg">
<ellipse cx="21.6693" cy="21.5" rx="21.1532" ry="21.5" fill="#2F73DA"/>
<g clip-path="url(#clip0_460_1381)">
<path d="M23.5542 14.7177H12.1453V16.5972H23.5542V14.7177Z" fill="#F9F9F9"/>
<path d="M29.1423 28.8497C30.0267 27.2618 29.7702 25.2385 28.4838 23.9324C27.7227 23.1589 26.7108 22.7319 25.6309 22.7319C24.551 22.7319 23.5376 23.1589 22.7766 23.9324C22.0155 24.7059 21.5955 25.7345 21.5955 26.8335C21.5955 27.9283 22.0155 28.9582 22.7766 29.7346C23.5376 30.5053 24.5496 30.9322 25.6281 30.9322C26.3309 30.9322 27.0116 30.7505 27.616 30.4039L32.138 35L33.6642 33.4473L29.1423 28.8497ZM27.329 28.5581C26.4252 29.4767 24.8393 29.4767 23.9355 28.5581C22.9997 27.6056 22.9997 26.06 23.9355 25.1075C24.3874 24.6482 24.9918 24.3945 25.6336 24.3945C26.2755 24.3945 26.8771 24.6482 27.3304 25.1075C27.7837 25.5668 28.0332 26.1811 28.0332 26.8335C28.0332 27.4858 27.7823 28.0973 27.329 28.5581Z" fill="#F9F9F9"/>
<path d="M26.8687 31.9665H10.9614C10.7091 31.9665 10.5053 31.7579 10.5053 31.5043V11.3079C10.5053 11.0515 10.7091 10.8444 10.9614 10.8444H26.8687C27.121 10.8444 27.3234 11.0515 27.3234 11.3079V21.6104C27.9819 21.757 28.596 22.043 29.1394 22.4516V11.3079C29.1394 10.0356 28.1219 9 26.8687 9H10.9614C9.70957 9 8.69067 10.0356 8.69067 11.3079V31.5043C8.69067 32.7752 9.70957 33.8108 10.9614 33.8108H26.8687C27.8183 33.8108 28.2674 33.5826 28.6057 32.74L27.7822 31.9031C27.4786 32.0327 26.999 31.9665 26.8687 31.9665Z" fill="#F9F9F9"/>
<path d="M23.5542 20.0154H12.1453V21.895H23.5542V20.0154Z" fill="#F9F9F9"/>
</g>
<defs>
<clipPath id="clip0_460_1381">
<rect width="25.5806" height="26" fill="white" transform="translate(8.38721 9)"/>
</clipPath>
</defs>
</svg>
