<svg width="178" height="210" viewBox="0 0 178 210" fill="none" xmlns="http://www.w3.org/2000/svg">
<g clip-path="url(#clip0_390_1420)">
<path d="M126.586 176.228L128.347 210C128.347 210 53.8692 139.186 44.5906 118.467C35.312 97.7479 52.7776 46.4951 52.7776 46.4951L91.5293 67.7596L126.586 176.228Z" fill="#9F616A"/>
<path d="M12.3884 32.3188L0.92661 33.4093C0.92661 33.4093 -5.0772 46.4952 13.48 47.5857L12.3884 32.3188Z" fill="#9F616A"/>
<path d="M12.3884 52.4927L0.92661 53.5832C0.92661 53.5832 -5.0772 66.669 13.48 67.7595L12.3884 52.4927Z" fill="#9F616A"/>
<path d="M12.3884 74.3022L0.92661 75.3927C0.92661 75.3927 -5.0772 88.4785 13.48 89.569L12.3884 74.3022Z" fill="#9F616A"/>
<path d="M15.6633 96.1123L4.20151 97.2028C4.20151 97.2028 -1.8023 110.289 16.7549 111.379L15.6633 96.1123Z" fill="#9F616A"/>
<path d="M6.80835 37.5758H7.67804V13.7752C7.67804 11.9662 8.03471 10.1749 8.72768 8.50364C9.42065 6.83236 10.4364 5.3138 11.7168 4.03466C12.9972 2.75551 14.5174 1.74084 16.1903 1.04858C17.8633 0.35631 19.6564 1.38596e-06 21.4672 0H71.9436C73.7544 -3.6958e-06 75.5475 0.356299 77.2205 1.04856C78.8935 1.74082 80.4136 2.75549 81.694 4.03463C82.9745 5.31377 83.9902 6.83232 84.6832 8.5036C85.3761 10.1749 85.7328 11.9661 85.7328 13.7751V144.347C85.7328 146.156 85.3761 147.947 84.6832 149.619C83.9902 151.29 82.9745 152.809 81.694 154.088C80.4136 155.367 78.8935 156.382 77.2205 157.074C75.5475 157.766 73.7544 158.122 71.9436 158.122H21.4673C17.8102 158.122 14.3028 156.671 11.7169 154.088C9.13086 151.504 7.67806 148.001 7.67805 144.347V54.5175H6.80835V37.5758Z" fill="#3F3D56"/>
<path d="M20.9109 3.58351H27.4997C27.1967 4.32561 27.0811 5.13077 27.1629 5.92805C27.2448 6.72533 27.5217 7.49027 27.9692 8.15547C28.4167 8.82067 29.0211 9.36573 29.7291 9.74262C30.4372 10.1195 31.2271 10.3167 32.0294 10.3167H60.9466C61.7489 10.3167 62.5389 10.1195 63.2469 9.74262C63.955 9.36573 64.5594 8.82068 65.0069 8.15547C65.4544 7.49027 65.7313 6.72534 65.8131 5.92805C65.895 5.13077 65.7793 4.3256 65.4763 3.5835H71.6303C74.3614 3.58349 76.9806 4.66731 78.9118 6.59652C80.843 8.52572 81.9279 11.1423 81.9279 13.8706V144.251C81.9279 145.602 81.6616 146.94 81.1441 148.188C80.6266 149.436 79.8681 150.57 78.9118 151.525C77.9556 152.48 76.8204 153.238 75.571 153.755C74.3217 154.272 72.9826 154.538 71.6303 154.538H20.9109C19.5586 154.538 18.2196 154.272 16.9702 153.755C15.7208 153.238 14.5856 152.48 13.6294 151.525C12.6732 150.57 11.9146 149.436 11.3971 148.188C10.8796 146.94 10.6133 145.602 10.6133 144.251V13.8706C10.6133 12.5197 10.8796 11.182 11.3971 9.93391C11.9146 8.68582 12.6732 7.55177 13.6294 6.59653C14.5856 5.64128 15.7208 4.88354 16.9702 4.36656C18.2196 3.84959 19.5586 3.5835 20.9109 3.58351Z" fill="white"/>
<path d="M57.1371 40.1099H35.4041V45.3489H57.1371V40.1099Z" fill="#034AB3"/>
<path d="M58.1718 62.6221H34.3694V67.8611H58.1718V62.6221Z" fill="#E5E5E5"/>
<path d="M72.833 73.876H19.7083V79.115H72.833V73.876Z" fill="#E5E5E5"/>
<path d="M72.833 85.1299H19.7083V90.3689H72.833V85.1299Z" fill="#E5E5E5"/>
<path d="M178 193.818L116.909 124.192L114.726 79.4823L91.8022 41.3153L85.2526 24.958C85.2526 24.958 69.9702 26.5937 82.5236 57.6726L87.7087 74.3025C83.0348 84.3592 80.6134 95.3135 80.6134 106.401V144.509C80.6134 153.482 123.417 202.358 128.4 209.824L178 193.818Z" fill="#9F616A"/>
<path opacity="0.2" d="M87.0498 44.5492L91.607 42.3118L91.4517 41.9959L87.241 44.0633L80.8847 27.4155L80.5558 27.5411L87.0498 44.5492Z" fill="black"/>
<path opacity="0.2" d="M0.987584 33.2436L0.865845 33.5737L7.61686 36.058L7.7386 35.7279L0.987584 33.2436Z" fill="black"/>
<path opacity="0.2" d="M0.987584 53.6474L0.865845 53.9775L7.61686 56.4618L7.7386 56.1317L0.987584 53.6474Z" fill="black"/>
<path opacity="0.2" d="M0.987584 75.4584L0.865845 75.7886L7.61686 78.2729L7.7386 77.9427L0.987584 75.4584Z" fill="black"/>
<path opacity="0.2" d="M4.52454 97.2762L4.37219 97.5933L7.65898 99.1692L7.81133 98.8521L4.52454 97.2762Z" fill="black"/>
<path d="M46.2975 135.582C54.7052 135.582 61.521 128.774 61.521 120.374C61.521 111.975 54.7052 105.167 46.2975 105.167C37.8899 105.167 31.0741 111.975 31.0741 120.374C31.0741 128.774 37.8899 135.582 46.2975 135.582Z" fill="#034AB3"/>
<path d="M44.8466 126.794L40.2905 120.941L42.9401 118.883L45.0974 121.654L52.3858 113.968L54.8231 116.274L44.8466 126.794Z" fill="white"/>
</g>
<defs>
<clipPath id="clip0_390_1420">
<rect width="178" height="210" fill="white"/>
</clipPath>
</defs>
</svg>
